<svg width="22" height="22" viewBox="0 0 22 22" fill="none" xmlns="http://www.w3.org/2000/svg">
<path d="M11 14.6666C13.025 14.6666 14.6666 13.025 14.6666 10.9999C14.6666 8.97487 13.025 7.33325 11 7.33325C8.97494 7.33325 7.33331 8.97487 7.33331 10.9999C7.33331 13.025 8.97494 14.6666 11 14.6666Z" stroke="#596780" stroke-linecap="round" stroke-linejoin="round"/>
<path d="M14.6667 7.33326V11.9166C14.6667 12.6459 14.9564 13.3454 15.4721 13.8611C15.9878 14.3769 16.6873 14.6666 17.4167 14.6666C18.146 14.6666 18.8455 14.3769 19.3612 13.8611C19.8769 13.3454 20.1667 12.6459 20.1667 11.9166V10.9999C20.1667 8.93496 19.4694 6.93047 18.1879 5.31125C16.9065 3.69202 15.1158 2.55291 13.1061 2.07848C11.0963 1.60404 8.98528 1.82208 7.11494 2.69727C5.24461 3.57245 3.72456 5.0535 2.80107 6.90047C1.87759 8.74743 1.60478 10.8521 2.02683 12.8735C2.44889 14.8949 3.54109 16.7145 5.12647 18.0376C6.71186 19.3608 8.69755 20.1098 10.7618 20.1635C12.8261 20.2171 14.848 19.5722 16.5 18.3333" stroke="#596780" stroke-linecap="round" stroke-linejoin="round"/>
</svg>
